<svg width="251" height="274" viewBox="0 0 251 274" fill="none" xmlns="http://www.w3.org/2000/svg">
<g filter="url(#filter0_d_2_49)">
<rect x="83.3984" y="135.244" width="90.201" height="88" rx="10" fill="white"/>
</g>
<g clip-path="url(#clip0_2_49)">
<path d="M124.399 195.244V183.244H132.599V195.244H142.849V179.244H148.999L128.499 161.244L107.999 179.244H114.149V195.244H124.399Z" fill="#5A98D0"/>
</g>
<g filter="url(#filter1_d_2_49)">
<path d="M78.4921 10H55.3431C52.1487 10 49.5591 12.2858 49.5591 15.1054V35.5386C49.5591 38.3583 52.1487 40.6441 55.3431 40.6441H78.4921C81.6865 40.6441 84.2761 38.3583 84.2761 35.5386V15.1054C84.2761 12.2858 81.6865 10 78.4921 10Z" fill="#56CCF2"/>
</g>
<path d="M75.6037 24.2509H72.0846L74.8189 21.8208L73.629 20.7557L69.6963 24.2509H68.0085V22.7508L71.9411 19.2556L70.7428 18.198L68.0085 20.6282V17.5005H66.3207V20.6282L63.5864 18.198L62.3881 19.2556L66.3207 22.7508V24.2509H64.6329L60.7002 20.7557L59.5103 21.8208L62.2446 24.2509H58.7255V25.751H62.2446L59.5103 28.1812L60.7002 29.2462L64.6329 25.751H66.3207V27.2511L62.3881 30.7463L63.5864 31.8039L66.3207 29.3738V32.5015H68.0085V29.3738L70.7428 31.8039L71.9411 30.7463L68.0085 27.2511V25.751H69.6963L73.629 29.2462L74.8189 28.1812L72.0846 25.751H75.6037V24.2509Z" fill="white"/>
<g filter="url(#filter2_d_2_49)">
<path d="M225.216 87.255H202.067C198.873 87.255 196.283 89.5408 196.283 92.3604V112.794C196.283 115.613 198.873 117.899 202.067 117.899H225.216C228.41 117.899 231 115.613 231 112.794V92.3604C231 89.5408 228.41 87.255 225.216 87.255Z" fill="#F2C94C"/>
</g>
<path d="M221.6 100.006C221.6 96.2556 218.225 93.2554 214.005 93.2554C209.786 93.2554 206.41 96.2556 206.41 100.006C206.41 102.331 207.76 104.431 209.786 105.631V107.506C209.786 108.481 210.461 109.306 211.473 109.606V109.756C211.473 111.032 212.571 112.007 214.005 112.007C215.44 112.007 216.537 111.032 216.537 109.756V109.606C217.55 109.306 218.225 108.481 218.225 107.506V105.631C220.25 104.431 221.6 102.331 221.6 100.006ZM208.098 100.006C208.098 97.0806 210.714 94.7555 214.005 94.7555C217.296 94.7555 219.913 97.0806 219.913 100.006C219.913 102.631 217.718 104.806 214.849 105.181V103.306L216.284 102.031C216.621 101.731 216.621 101.281 216.284 100.981C215.946 100.681 215.44 100.681 215.102 100.981L214.005 101.956L212.908 100.981C212.571 100.681 212.064 100.681 211.727 100.981C211.389 101.281 211.389 101.731 211.727 102.031L213.161 103.306V105.181C210.292 104.806 208.098 102.631 208.098 100.006ZM214.005 110.506C213.499 110.506 213.161 110.206 213.161 109.756H214.849C214.849 110.206 214.512 110.506 214.005 110.506ZM216.537 107.506C216.537 107.956 216.199 108.256 215.693 108.256H212.317C211.811 108.256 211.473 107.956 211.473 107.506V106.381C212.233 106.606 213.077 106.756 214.005 106.756C214.933 106.756 215.777 106.606 216.537 106.381V107.506Z" fill="white"/>
<g filter="url(#filter3_d_2_49)">
<path d="M39.5555 87.255H16.4066C13.2121 87.255 10.6226 89.5408 10.6226 92.3604V112.794C10.6226 115.613 13.2121 117.899 16.4066 117.899H39.5555C42.7499 117.899 45.3395 115.613 45.3395 112.794V92.3604C45.3395 89.5408 42.7499 87.255 39.5555 87.255Z" fill="#F58A8A"/>
</g>
<path d="M33.4082 99.2557H32.5643V97.7556C32.5643 95.6855 30.6739 94.0054 28.3447 94.0054C26.0155 94.0054 24.1251 95.6855 24.1251 97.7556V99.2557H23.2812C22.3529 99.2557 21.5934 99.9308 21.5934 100.756V108.256C21.5934 109.081 22.3529 109.756 23.2812 109.756H33.4082C34.3365 109.756 35.096 109.081 35.096 108.256V100.756C35.096 99.9308 34.3365 99.2557 33.4082 99.2557ZM28.3447 106.006C27.4164 106.006 26.6569 105.331 26.6569 104.506C26.6569 103.681 27.4164 103.006 28.3447 103.006C29.273 103.006 30.0325 103.681 30.0325 104.506C30.0325 105.331 29.273 106.006 28.3447 106.006ZM30.9608 99.2557H25.7286V97.7556C25.7286 96.473 26.9016 95.4305 28.3447 95.4305C29.7878 95.4305 30.9608 96.473 30.9608 97.7556V99.2557Z" fill="white"/>
<g filter="url(#filter4_d_2_49)">
<path d="M186.396 10H163.247C160.053 10 157.463 12.2858 157.463 15.1054V35.5386C157.463 38.3583 160.053 40.6441 163.247 40.6441H186.396C189.591 40.6441 192.18 38.3583 192.18 35.5386V15.1054C192.18 12.2858 189.591 10 186.396 10Z" fill="#6FCF97"/>
</g>
<path d="M179.667 21.173H165.885V28.8286H179.667V21.173Z" fill="white"/>
<path d="M183.382 22.6964L180.34 23.8328V26.2011L183.382 27.3375H184.485V22.6964H183.382Z" fill="white"/>
<defs>
<filter id="filter0_d_2_49" x="33.3984" y="85.2437" width="190.201" height="188" filterUnits="userSpaceOnUse" color-interpolation-filters="sRGB">
<feFlood flood-opacity="0" result="BackgroundImageFix"/>
<feColorMatrix in="SourceAlpha" type="matrix" values="0 0 0 0 0 0 0 0 0 0 0 0 0 0 0 0 0 0 127 0" result="hardAlpha"/>
<feOffset/>
<feGaussianBlur stdDeviation="25"/>
<feColorMatrix type="matrix" values="0 0 0 0 0.0627451 0 0 0 0 0.439216 0 0 0 0 0.694118 0 0 0 0.25 0"/>
<feBlend mode="normal" in2="BackgroundImageFix" result="effect1_dropShadow_2_49"/>
<feBlend mode="normal" in="SourceGraphic" in2="effect1_dropShadow_2_49" result="shape"/>
</filter>
<filter id="filter1_d_2_49" x="39.5591" y="0" width="64.717" height="60.644" filterUnits="userSpaceOnUse" color-interpolation-filters="sRGB">
<feFlood flood-opacity="0" result="BackgroundImageFix"/>
<feColorMatrix in="SourceAlpha" type="matrix" values="0 0 0 0 0 0 0 0 0 0 0 0 0 0 0 0 0 0 127 0" result="hardAlpha"/>
<feOffset dx="5" dy="5"/>
<feGaussianBlur stdDeviation="7.5"/>
<feColorMatrix type="matrix" values="0 0 0 0 0 0 0 0 0 0 0 0 0 0 0 0 0 0 0.15 0"/>
<feBlend mode="normal" in2="BackgroundImageFix" result="effect1_dropShadow_2_49"/>
<feBlend mode="normal" in="SourceGraphic" in2="effect1_dropShadow_2_49" result="shape"/>
</filter>
<filter id="filter2_d_2_49" x="186.283" y="77.255" width="64.717" height="60.644" filterUnits="userSpaceOnUse" color-interpolation-filters="sRGB">
<feFlood flood-opacity="0" result="BackgroundImageFix"/>
<feColorMatrix in="SourceAlpha" type="matrix" values="0 0 0 0 0 0 0 0 0 0 0 0 0 0 0 0 0 0 127 0" result="hardAlpha"/>
<feOffset dx="5" dy="5"/>
<feGaussianBlur stdDeviation="7.5"/>
<feColorMatrix type="matrix" values="0 0 0 0 0 0 0 0 0 0 0 0 0 0 0 0 0 0 0.15 0"/>
<feBlend mode="normal" in2="BackgroundImageFix" result="effect1_dropShadow_2_49"/>
<feBlend mode="normal" in="SourceGraphic" in2="effect1_dropShadow_2_49" result="shape"/>
</filter>
<filter id="filter3_d_2_49" x="0.622559" y="77.255" width="64.717" height="60.644" filterUnits="userSpaceOnUse" color-interpolation-filters="sRGB">
<feFlood flood-opacity="0" result="BackgroundImageFix"/>
<feColorMatrix in="SourceAlpha" type="matrix" values="0 0 0 0 0 0 0 0 0 0 0 0 0 0 0 0 0 0 127 0" result="hardAlpha"/>
<feOffset dx="5" dy="5"/>
<feGaussianBlur stdDeviation="7.5"/>
<feColorMatrix type="matrix" values="0 0 0 0 0 0 0 0 0 0 0 0 0 0 0 0 0 0 0.15 0"/>
<feBlend mode="normal" in2="BackgroundImageFix" result="effect1_dropShadow_2_49"/>
<feBlend mode="normal" in="SourceGraphic" in2="effect1_dropShadow_2_49" result="shape"/>
</filter>
<filter id="filter4_d_2_49" x="147.463" y="0" width="64.717" height="60.644" filterUnits="userSpaceOnUse" color-interpolation-filters="sRGB">
<feFlood flood-opacity="0" result="BackgroundImageFix"/>
<feColorMatrix in="SourceAlpha" type="matrix" values="0 0 0 0 0 0 0 0 0 0 0 0 0 0 0 0 0 0 127 0" result="hardAlpha"/>
<feOffset dx="5" dy="5"/>
<feGaussianBlur stdDeviation="7.5"/>
<feColorMatrix type="matrix" values="0 0 0 0 0 0 0 0 0 0 0 0 0 0 0 0 0 0 0.15 0"/>
<feBlend mode="normal" in2="BackgroundImageFix" result="effect1_dropShadow_2_49"/>
<feBlend mode="normal" in="SourceGraphic" in2="effect1_dropShadow_2_49" result="shape"/>
</filter>
<clipPath id="clip0_2_49">
<rect width="49.2005" height="48" fill="white" transform="translate(103.899 155.244)"/>
</clipPath>
</defs>
</svg>
